<svg width="468" height="554" viewBox="0 0 468 554" fill="none" xmlns="http://www.w3.org/2000/svg">
<g clip-path="url(#clip0_34_311)">
<rect width="468" height="554" fill="#F8F3F3"/>
<path d="M2.75294 7.58904C4.27335 7.58904 5.50588 5.89018 5.50588 3.79452C5.50588 1.69886 4.27335 0 2.75294 0C1.23253 0 0 1.69886 0 3.79452C0 5.89018 1.23253 7.58904 2.75294 7.58904Z" fill="#F67A45"/>
<path d="M79.8355 7.58904C81.3559 7.58904 82.5884 5.89018 82.5884 3.79452C82.5884 1.69886 81.3559 0 79.8355 0C78.3151 0 77.0825 1.69886 77.0825 3.79452C77.0825 5.89018 78.3151 7.58904 79.8355 7.58904Z" fill="#F67A45"/>
<path d="M156.917 7.58904C158.438 7.58904 159.67 5.89018 159.67 3.79452C159.67 1.69886 158.438 0 156.917 0C155.397 0 154.165 1.69886 154.165 3.79452C154.165 5.89018 155.397 7.58904 156.917 7.58904Z" fill="#F67A45"/>
<path d="M234 7.58904C235.52 7.58904 236.753 5.89018 236.753 3.79452C236.753 1.69886 235.52 0 234 0C232.48 0 231.247 1.69886 231.247 3.79452C231.247 5.89018 232.48 7.58904 234 7.58904Z" fill="#F67A45"/>
<path d="M311.083 7.58904C312.603 7.58904 313.835 5.89018 313.835 3.79452C313.835 1.69886 312.603 0 311.083 0C309.562 0 308.33 1.69886 308.33 3.79452C308.33 5.89018 309.562 7.58904 311.083 7.58904Z" fill="#F67A45"/>
<path d="M388.165 7.58904C389.685 7.58904 390.918 5.89018 390.918 3.79452C390.918 1.69886 389.685 0 388.165 0C386.644 0 385.412 1.69886 385.412 3.79452C385.412 5.89018 386.644 7.58904 388.165 7.58904Z" fill="#F67A45"/>
<path d="M465.247 7.58904C466.767 7.58904 468 5.89018 468 3.79452C468 1.69886 466.767 0 465.247 0C463.727 0 462.494 1.69886 462.494 3.79452C462.494 5.89018 463.727 7.58904 465.247 7.58904Z" fill="#F67A45"/>
<path d="M2.75294 98.6574C4.27335 98.6574 5.50588 96.9585 5.50588 94.8629C5.50588 92.7672 4.27335 91.0684 2.75294 91.0684C1.23253 91.0684 0 92.7672 0 94.8629C0 96.9585 1.23253 98.6574 2.75294 98.6574Z" fill="#F67A45"/>
<path d="M79.8355 98.6574C81.3559 98.6574 82.5884 96.9585 82.5884 94.8629C82.5884 92.7672 81.3559 91.0684 79.8355 91.0684C78.3151 91.0684 77.0825 92.7672 77.0825 94.8629C77.0825 96.9585 78.3151 98.6574 79.8355 98.6574Z" fill="#F67A45"/>
<path d="M156.917 98.6574C158.438 98.6574 159.67 96.9585 159.67 94.8629C159.67 92.7672 158.438 91.0684 156.917 91.0684C155.397 91.0684 154.165 92.7672 154.165 94.8629C154.165 96.9585 155.397 98.6574 156.917 98.6574Z" fill="#F67A45"/>
<path d="M234 98.6574C235.52 98.6574 236.753 96.9585 236.753 94.8629C236.753 92.7672 235.52 91.0684 234 91.0684C232.48 91.0684 231.247 92.7672 231.247 94.8629C231.247 96.9585 232.48 98.6574 234 98.6574Z" fill="#F67A45"/>
<path d="M311.083 98.6574C312.603 98.6574 313.835 96.9585 313.835 94.8629C313.835 92.7672 312.603 91.0684 311.083 91.0684C309.562 91.0684 308.33 92.7672 308.33 94.8629C308.33 96.9585 309.562 98.6574 311.083 98.6574Z" fill="#F67A45"/>
<path d="M388.165 98.6574C389.685 98.6574 390.918 96.9585 390.918 94.8629C390.918 92.7672 389.685 91.0684 388.165 91.0684C386.644 91.0684 385.412 92.7672 385.412 94.8629C385.412 96.9585 386.644 98.6574 388.165 98.6574Z" fill="#F67A45"/>
<path d="M465.247 98.6574C466.767 98.6574 468 96.9585 468 94.8629C468 92.7672 466.767 91.0684 465.247 91.0684C463.727 91.0684 462.494 92.7672 462.494 94.8629C462.494 96.9585 463.727 98.6574 465.247 98.6574Z" fill="#F67A45"/>
<path d="M2.75294 189.726C4.27335 189.726 5.50588 188.027 5.50588 185.931C5.50588 183.836 4.27335 182.137 2.75294 182.137C1.23253 182.137 0 183.836 0 185.931C0 188.027 1.23253 189.726 2.75294 189.726Z" fill="#F67A45"/>
<path d="M79.8355 189.726C81.3559 189.726 82.5884 188.027 82.5884 185.931C82.5884 183.836 81.3559 182.137 79.8355 182.137C78.3151 182.137 77.0825 183.836 77.0825 185.931C77.0825 188.027 78.3151 189.726 79.8355 189.726Z" fill="#F67A45"/>
<path d="M156.917 189.726C158.438 189.726 159.67 188.027 159.67 185.931C159.67 183.836 158.438 182.137 156.917 182.137C155.397 182.137 154.165 183.836 154.165 185.931C154.165 188.027 155.397 189.726 156.917 189.726Z" fill="#F67A45"/>
<path d="M234 189.726C235.52 189.726 236.753 188.027 236.753 185.931C236.753 183.836 235.52 182.137 234 182.137C232.48 182.137 231.247 183.836 231.247 185.931C231.247 188.027 232.48 189.726 234 189.726Z" fill="#F67A45"/>
<path d="M311.083 189.726C312.603 189.726 313.835 188.027 313.835 185.931C313.835 183.836 312.603 182.137 311.083 182.137C309.562 182.137 308.33 183.836 308.33 185.931C308.33 188.027 309.562 189.726 311.083 189.726Z" fill="#F67A45"/>
<path d="M388.165 189.726C389.685 189.726 390.918 188.027 390.918 185.931C390.918 183.836 389.685 182.137 388.165 182.137C386.644 182.137 385.412 183.836 385.412 185.931C385.412 188.027 386.644 189.726 388.165 189.726Z" fill="#F67A45"/>
<path d="M465.247 189.726C466.767 189.726 468 188.027 468 185.931C468 183.836 466.767 182.137 465.247 182.137C463.727 182.137 462.494 183.836 462.494 185.931C462.494 188.027 463.727 189.726 465.247 189.726Z" fill="#F67A45"/>
<path d="M2.75294 280.794C4.27335 280.794 5.50588 279.095 5.50588 277C5.50588 274.904 4.27335 273.205 2.75294 273.205C1.23253 273.205 0 274.904 0 277C0 279.095 1.23253 280.794 2.75294 280.794Z" fill="#F67A45"/>
<path d="M79.8355 280.794C81.3559 280.794 82.5884 279.095 82.5884 277C82.5884 274.904 81.3559 273.205 79.8355 273.205C78.3151 273.205 77.0825 274.904 77.0825 277C77.0825 279.095 78.3151 280.794 79.8355 280.794Z" fill="#F67A45"/>
<path d="M156.917 280.794C158.438 280.794 159.67 279.095 159.67 277C159.67 274.904 158.438 273.205 156.917 273.205C155.397 273.205 154.165 274.904 154.165 277C154.165 279.095 155.397 280.794 156.917 280.794Z" fill="#F67A45"/>
<path d="M234 280.794C235.52 280.794 236.753 279.095 236.753 277C236.753 274.904 235.52 273.205 234 273.205C232.48 273.205 231.247 274.904 231.247 277C231.247 279.095 232.48 280.794 234 280.794Z" fill="#F67A45"/>
<path d="M311.083 280.794C312.603 280.794 313.835 279.095 313.835 277C313.835 274.904 312.603 273.205 311.083 273.205C309.562 273.205 308.33 274.904 308.33 277C308.33 279.095 309.562 280.794 311.083 280.794Z" fill="#F67A45"/>
<path d="M388.165 280.794C389.685 280.794 390.918 279.095 390.918 277C390.918 274.904 389.685 273.205 388.165 273.205C386.644 273.205 385.412 274.904 385.412 277C385.412 279.095 386.644 280.794 388.165 280.794Z" fill="#F67A45"/>
<path d="M465.247 280.794C466.767 280.794 468 279.095 468 277C468 274.904 466.767 273.205 465.247 273.205C463.727 273.205 462.494 274.904 462.494 277C462.494 279.095 463.727 280.794 465.247 280.794Z" fill="#F67A45"/>
<path d="M2.75294 371.863C4.27335 371.863 5.50588 370.165 5.50588 368.069C5.50588 365.973 4.27335 364.274 2.75294 364.274C1.23253 364.274 0 365.973 0 368.069C0 370.165 1.23253 371.863 2.75294 371.863Z" fill="#F67A45"/>
<path d="M79.8355 371.863C81.3559 371.863 82.5884 370.165 82.5884 368.069C82.5884 365.973 81.3559 364.274 79.8355 364.274C78.3151 364.274 77.0825 365.973 77.0825 368.069C77.0825 370.165 78.3151 371.863 79.8355 371.863Z" fill="#F67A45"/>
<path d="M156.917 371.863C158.438 371.863 159.67 370.165 159.67 368.069C159.67 365.973 158.438 364.274 156.917 364.274C155.397 364.274 154.165 365.973 154.165 368.069C154.165 370.165 155.397 371.863 156.917 371.863Z" fill="#F67A45"/>
<path d="M234 371.863C235.52 371.863 236.753 370.165 236.753 368.069C236.753 365.973 235.52 364.274 234 364.274C232.48 364.274 231.247 365.973 231.247 368.069C231.247 370.165 232.48 371.863 234 371.863Z" fill="#F67A45"/>
<path d="M311.083 371.863C312.603 371.863 313.835 370.165 313.835 368.069C313.835 365.973 312.603 364.274 311.083 364.274C309.562 364.274 308.33 365.973 308.33 368.069C308.33 370.165 309.562 371.863 311.083 371.863Z" fill="#F67A45"/>
<path d="M388.165 371.863C389.685 371.863 390.918 370.165 390.918 368.069C390.918 365.973 389.685 364.274 388.165 364.274C386.644 364.274 385.412 365.973 385.412 368.069C385.412 370.165 386.644 371.863 388.165 371.863Z" fill="#F67A45"/>
<path d="M465.247 371.863C466.767 371.863 468 370.165 468 368.069C468 365.973 466.767 364.274 465.247 364.274C463.727 364.274 462.494 365.973 462.494 368.069C462.494 370.165 463.727 371.863 465.247 371.863Z" fill="#F67A45"/>
<path d="M2.75294 462.932C4.27335 462.932 5.50588 461.233 5.50588 459.137C5.50588 457.042 4.27335 455.343 2.75294 455.343C1.23253 455.343 0 457.042 0 459.137C0 461.233 1.23253 462.932 2.75294 462.932Z" fill="#F67A45"/>
<path d="M79.8355 462.932C81.3559 462.932 82.5884 461.233 82.5884 459.137C82.5884 457.042 81.3559 455.343 79.8355 455.343C78.3151 455.343 77.0825 457.042 77.0825 459.137C77.0825 461.233 78.3151 462.932 79.8355 462.932Z" fill="#F67A45"/>
<path d="M156.917 462.932C158.438 462.932 159.67 461.233 159.67 459.137C159.67 457.042 158.438 455.343 156.917 455.343C155.397 455.343 154.165 457.042 154.165 459.137C154.165 461.233 155.397 462.932 156.917 462.932Z" fill="#F67A45"/>
<path d="M234 462.932C235.52 462.932 236.753 461.233 236.753 459.137C236.753 457.042 235.52 455.343 234 455.343C232.48 455.343 231.247 457.042 231.247 459.137C231.247 461.233 232.48 462.932 234 462.932Z" fill="#F67A45"/>
<path d="M311.083 462.932C312.603 462.932 313.835 461.233 313.835 459.137C313.835 457.042 312.603 455.343 311.083 455.343C309.562 455.343 308.33 457.042 308.33 459.137C308.33 461.233 309.562 462.932 311.083 462.932Z" fill="#F67A45"/>
<path d="M388.165 462.932C389.685 462.932 390.918 461.233 390.918 459.137C390.918 457.042 389.685 455.343 388.165 455.343C386.644 455.343 385.412 457.042 385.412 459.137C385.412 461.233 386.644 462.932 388.165 462.932Z" fill="#F67A45"/>
<path d="M465.247 462.932C466.767 462.932 468 461.233 468 459.137C468 457.042 466.767 455.343 465.247 455.343C463.727 455.343 462.494 457.042 462.494 459.137C462.494 461.233 463.727 462.932 465.247 462.932Z" fill="#F67A45"/>
<path d="M2.75294 554C4.27335 554 5.50588 552.301 5.50588 550.206C5.50588 548.11 4.27335 546.411 2.75294 546.411C1.23253 546.411 0 548.11 0 550.206C0 552.301 1.23253 554 2.75294 554Z" fill="#F67A45"/>
<path d="M79.8355 554C81.3559 554 82.5884 552.301 82.5884 550.206C82.5884 548.11 81.3559 546.411 79.8355 546.411C78.3151 546.411 77.0825 548.11 77.0825 550.206C77.0825 552.301 78.3151 554 79.8355 554Z" fill="#F67A45"/>
<path d="M156.917 554C158.438 554 159.67 552.301 159.67 550.206C159.67 548.11 158.438 546.411 156.917 546.411C155.397 546.411 154.165 548.11 154.165 550.206C154.165 552.301 155.397 554 156.917 554Z" fill="#F67A45"/>
<path d="M234 554C235.52 554 236.753 552.301 236.753 550.206C236.753 548.11 235.52 546.411 234 546.411C232.48 546.411 231.247 548.11 231.247 550.206C231.247 552.301 232.48 554 234 554Z" fill="#F67A45"/>
<path d="M311.083 554C312.603 554 313.835 552.301 313.835 550.206C313.835 548.11 312.603 546.411 311.083 546.411C309.562 546.411 308.33 548.11 308.33 550.206C308.33 552.301 309.562 554 311.083 554Z" fill="#F67A45"/>
<path d="M388.165 554C389.685 554 390.918 552.301 390.918 550.206C390.918 548.11 389.685 546.411 388.165 546.411C386.644 546.411 385.412 548.11 385.412 550.206C385.412 552.301 386.644 554 388.165 554Z" fill="#F67A45"/>
<path d="M465.247 554C466.767 554 468 552.301 468 550.206C468 548.11 466.767 546.411 465.247 546.411C463.727 546.411 462.494 548.11 462.494 550.206C462.494 552.301 463.727 554 465.247 554Z" fill="#F67A45"/>
</g>
<defs>
<clipPath id="clip0_34_311">
<rect width="468" height="554" fill="white"/>
</clipPath>
</defs>
</svg>
